<?xml version="1.0" encoding="utf-8"?>
<!-- Generator: Adobe Illustrator 25.2.0, SVG Export Plug-In . SVG Version: 6.00 Build 0)  -->
<svg version="1.1" id="Layer_1" xmlns="http://www.w3.org/2000/svg" xmlns:xlink="http://www.w3.org/1999/xlink" x="0px" y="0px"
	 viewBox="0 0 59 38.7" style="enable-background:new 0 0 59 38.7;" xml:space="preserve">
<style type="text/css">
	.st0{fill:#0378FB;}
	.st1{fill:#FFFFFF;}
</style>
<g>
	<g>
		<g>
			<path class="st0" d="M45.2,16.3L45.2,16.3l-1,0.7c-0.1,0-0.1,0-0.1-0.1v-0.7c0-0.1,0-0.1,0.1-0.1l1.1-0.8c0,0,0.1-0.1,0.1-0.1
				h0.5c0.1,0,0.1,0,0.1,0.1v6c0,0.1,0,0.1-0.1,0.1h-0.6c-0.1,0-0.1,0-0.1-0.1V16.3z"/>
			<path class="st0" d="M49.7,21.5C49.6,21.5,49.6,21.4,49.7,21.5l-0.1-5.4c0,0,0-0.1-0.1-0.1h-1.7c-0.1,0-0.1,0-0.1-0.1v-0.6
				c0-0.1,0-0.1,0.1-0.1h4.3c0.1,0,0.1,0,0.1,0.1V16c0,0.1,0,0.1-0.1,0.1h-1.7c0,0-0.1,0-0.1,0.1v5.3c0,0.1,0,0.1-0.1,0.1H49.7z"/>
		</g>
	</g>
	<g>
		<g>
			<path class="st0" d="M20.8,27.2c0,0.1,0,0.2-0.1,0.2l-6.2,4.2c-0.3,0.2-0.7,0-0.7-0.4V11.6c0-0.2,0.1-0.3,0.2-0.4l6.1-4.1
				c0.3-0.2,0.7,0,0.7,0.4V27.2z"/>
			<path class="st0" d="M12.3,19.1c0.2-0.1,0.4-0.4,0.4-0.7l0-5.5c0-0.3-0.4-0.5-0.7-0.3l-4.4,3c-0.1,0.1-0.2,0.3-0.2,0.4v5.6
				c0,0.3,0.3,0.5,0.6,0.4L12.3,19.1z"/>
			<path class="st0" d="M35.6,19.1c0.2-0.1,0.4-0.4,0.4-0.7l0-5.5c0-0.3-0.4-0.5-0.7-0.3l-4.4,3c-0.1,0.1-0.2,0.3-0.2,0.4v5.6
				c0,0.3,0.3,0.5,0.6,0.4L35.6,19.1z"/>
		</g>
		<path class="st0" d="M29.5,27.2c0,0.1,0,0.2-0.1,0.2l-6.2,4.2c-0.3,0.2-0.7,0-0.7-0.4V11.6c0-0.2,0.1-0.3,0.2-0.4l6.1-4.1
			c0.3-0.2,0.7,0,0.7,0.4V27.2z"/>
	</g>
</g>
</svg>
